<?xml version="1.0" encoding="UTF-8"?>
<svg id="Layer_1" xmlns="http://www.w3.org/2000/svg" version="1.1" viewBox="0 0 3401.6 3401.6">
  <!-- Generator: Adobe Illustrator 30.1.0, SVG Export Plug-In . SVG Version: 2.1.1 Build 136)  -->
  <defs>
    <style>
      .st0 {
        stroke: #b3b3b3;
      }

      .st0, .st1 {
        stroke-linecap: round;
        stroke-width: 22.7px;
      }

      .st0, .st1, .st2 {
        fill: none;
        stroke-miterlimit: 11.3;
      }

      .st1 {
        stroke: #ff8e24;
      }

      .st2 {
        stroke: #333;
        stroke-width: 2.8px;
      }

      .st3 {
        fill: #fff;
        stroke: #000;
        stroke-miterlimit: 10;
      }
    </style>
  </defs>
  <g id="a">
    <line class="st1" x1="187.1" y1="272.1" x2="357.2" y2="272.1"/>
    <line class="st0" x1="430.9" y1="187.1" x2="430.9" y2="357.2"/>
    <line class="st1" x1="504.6" y1="272.1" x2="674.7" y2="272.1"/>
    <line class="st0" x1="748.3" y1="187.1" x2="748.3" y2="357.2"/>
    <line class="st1" x1="822" y1="272.1" x2="992.1" y2="272.1"/>
    <line class="st0" x1="1065.8" y1="187.1" x2="1065.8" y2="357.2"/>
    <line class="st1" x1="1139.5" y1="272.1" x2="1309.6" y2="272.1"/>
    <line class="st0" x1="1383.3" y1="187.1" x2="1383.3" y2="357.2"/>
    <line class="st1" x1="1457" y1="272.1" x2="1627.1" y2="272.1"/>
    <line class="st0" x1="1700.8" y1="187.1" x2="1700.8" y2="357.2"/>
    <line class="st1" x1="1774.5" y1="272.1" x2="1944.6" y2="272.1"/>
    <line class="st0" x1="2018.3" y1="187.1" x2="2018.3" y2="357.2"/>
    <line class="st1" x1="2092" y1="272.1" x2="2262.1" y2="272.1"/>
    <line class="st0" x1="2335.8" y1="187.1" x2="2335.8" y2="357.2"/>
    <line class="st1" x1="2409.4" y1="272.1" x2="2579.5" y2="272.1"/>
    <line class="st0" x1="2653.2" y1="187.1" x2="2653.2" y2="357.2"/>
    <line class="st1" x1="2726.9" y1="272.1" x2="2897" y2="272.1"/>
    <line class="st0" x1="2970.7" y1="187.1" x2="2970.7" y2="357.2"/>
    <line class="st1" x1="3044.4" y1="272.1" x2="3214.5" y2="272.1"/>
    <line class="st0" x1="272.1" y1="345.8" x2="272.1" y2="515.9"/>
    <line class="st1" x1="345.8" y1="430.9" x2="515.9" y2="430.9"/>
    <line class="st0" x1="589.6" y1="345.8" x2="589.6" y2="515.9"/>
    <line class="st1" x1="663.3" y1="430.9" x2="833.4" y2="430.9"/>
    <line class="st0" x1="907.1" y1="345.8" x2="907.1" y2="515.9"/>
    <line class="st1" x1="980.8" y1="430.9" x2="1150.9" y2="430.9"/>
    <line class="st0" x1="1224.6" y1="345.8" x2="1224.6" y2="515.9"/>
    <line class="st1" x1="1298.3" y1="430.9" x2="1468.3" y2="430.9"/>
    <line class="st0" x1="1542.1" y1="345.8" x2="1542.1" y2="515.9"/>
    <line class="st1" x1="1615.8" y1="430.9" x2="1785.8" y2="430.9"/>
    <line class="st0" x1="1859.5" y1="345.8" x2="1859.5" y2="515.9"/>
    <line class="st1" x1="1933.2" y1="430.9" x2="2103.3" y2="430.9"/>
    <line class="st0" x1="2177" y1="345.8" x2="2177" y2="515.9"/>
    <line class="st1" x1="2250.7" y1="430.9" x2="2420.8" y2="430.9"/>
    <line class="st0" x1="2494.5" y1="345.8" x2="2494.5" y2="515.9"/>
    <line class="st1" x1="2568.2" y1="430.9" x2="2738.3" y2="430.9"/>
    <line class="st0" x1="2812" y1="345.8" x2="2812" y2="515.9"/>
    <line class="st1" x1="2885.7" y1="430.9" x2="3055.8" y2="430.9"/>
    <line class="st0" x1="3129.4" y1="345.8" x2="3129.4" y2="515.9"/>
    <line class="st1" x1="187.1" y1="589.6" x2="357.2" y2="589.6"/>
    <line class="st0" x1="430.9" y1="504.6" x2="430.9" y2="674.7"/>
    <line class="st1" x1="504.6" y1="589.6" x2="674.7" y2="589.6"/>
    <line class="st0" x1="748.3" y1="504.6" x2="748.3" y2="674.7"/>
    <line class="st1" x1="822" y1="589.6" x2="992.1" y2="589.6"/>
    <line class="st0" x1="1065.8" y1="504.6" x2="1065.8" y2="674.7"/>
    <line class="st1" x1="1139.5" y1="589.6" x2="1309.6" y2="589.6"/>
    <line class="st0" x1="1383.3" y1="504.6" x2="1383.3" y2="674.7"/>
    <line class="st1" x1="1457" y1="589.6" x2="1627.1" y2="589.6"/>
    <line class="st0" x1="1700.8" y1="504.6" x2="1700.8" y2="674.7"/>
    <line class="st1" x1="1774.5" y1="589.6" x2="1944.6" y2="589.6"/>
    <line class="st0" x1="2018.3" y1="504.6" x2="2018.3" y2="674.7"/>
    <line class="st1" x1="2092" y1="589.6" x2="2262.1" y2="589.6"/>
    <line class="st0" x1="2335.8" y1="504.6" x2="2335.8" y2="674.7"/>
    <line class="st1" x1="2409.4" y1="589.6" x2="2579.5" y2="589.6"/>
    <line class="st0" x1="2653.2" y1="504.6" x2="2653.2" y2="674.7"/>
    <line class="st1" x1="2726.9" y1="589.6" x2="2897" y2="589.6"/>
    <line class="st0" x1="2970.7" y1="504.6" x2="2970.7" y2="674.7"/>
    <line class="st1" x1="3044.4" y1="589.6" x2="3214.5" y2="589.6"/>
    <line class="st0" x1="272.1" y1="663.3" x2="272.1" y2="833.4"/>
    <line class="st1" x1="345.8" y1="748.3" x2="515.9" y2="748.3"/>
    <line class="st0" x1="589.6" y1="663.3" x2="589.6" y2="833.4"/>
    <line class="st1" x1="663.3" y1="748.3" x2="833.4" y2="748.3"/>
    <line class="st0" x1="907.1" y1="663.3" x2="907.1" y2="833.4"/>
    <line class="st1" x1="980.8" y1="748.3" x2="1150.9" y2="748.3"/>
    <line class="st0" x1="1224.6" y1="663.3" x2="1224.6" y2="833.4"/>
    <line class="st1" x1="1298.3" y1="748.3" x2="1468.3" y2="748.3"/>
    <line class="st0" x1="1542.1" y1="663.3" x2="1542.1" y2="833.4"/>
    <line class="st1" x1="1615.8" y1="748.3" x2="1785.8" y2="748.3"/>
    <line class="st0" x1="1859.5" y1="663.3" x2="1859.5" y2="833.4"/>
    <line class="st1" x1="1933.2" y1="748.3" x2="2103.3" y2="748.3"/>
    <line class="st0" x1="2177" y1="663.3" x2="2177" y2="833.4"/>
    <line class="st1" x1="2250.7" y1="748.3" x2="2420.8" y2="748.3"/>
    <line class="st0" x1="2494.5" y1="663.3" x2="2494.5" y2="833.4"/>
    <line class="st1" x1="2568.2" y1="748.3" x2="2738.3" y2="748.3"/>
    <line class="st0" x1="2812" y1="663.3" x2="2812" y2="833.4"/>
    <line class="st1" x1="2885.7" y1="748.3" x2="3055.8" y2="748.3"/>
    <line class="st0" x1="3129.4" y1="663.3" x2="3129.4" y2="833.4"/>
    <line class="st1" x1="187.1" y1="907.1" x2="357.2" y2="907.1"/>
    <line class="st0" x1="430.9" y1="822" x2="430.9" y2="992.1"/>
    <line class="st1" x1="504.6" y1="907.1" x2="674.7" y2="907.1"/>
    <line class="st0" x1="748.3" y1="822" x2="748.3" y2="992.1"/>
    <line class="st1" x1="822" y1="907.1" x2="992.1" y2="907.1"/>
    <line class="st0" x1="1065.8" y1="822" x2="1065.8" y2="992.1"/>
    <line class="st1" x1="1139.5" y1="907.1" x2="1309.6" y2="907.1"/>
    <line class="st0" x1="1383.3" y1="822" x2="1383.3" y2="992.1"/>
    <line class="st1" x1="1457" y1="907.1" x2="1627.1" y2="907.1"/>
    <line class="st0" x1="1700.8" y1="822" x2="1700.8" y2="992.1"/>
    <line class="st1" x1="1774.5" y1="907.1" x2="1944.6" y2="907.1"/>
    <line class="st0" x1="2018.3" y1="822" x2="2018.3" y2="992.1"/>
    <line class="st1" x1="2092" y1="907.1" x2="2262.1" y2="907.1"/>
    <line class="st0" x1="2335.8" y1="822" x2="2335.8" y2="992.1"/>
    <line class="st1" x1="2409.4" y1="907.1" x2="2579.5" y2="907.1"/>
    <line class="st0" x1="2653.2" y1="822" x2="2653.2" y2="992.1"/>
    <line class="st1" x1="2726.9" y1="907.1" x2="2897" y2="907.1"/>
    <line class="st0" x1="2970.7" y1="822" x2="2970.7" y2="992.1"/>
    <line class="st1" x1="3044.4" y1="907.1" x2="3214.5" y2="907.1"/>
    <line class="st0" x1="272.1" y1="980.8" x2="272.1" y2="1150.9"/>
    <line class="st1" x1="345.8" y1="1065.8" x2="515.9" y2="1065.8"/>
    <line class="st0" x1="589.6" y1="980.8" x2="589.6" y2="1150.9"/>
    <line class="st1" x1="663.3" y1="1065.8" x2="833.4" y2="1065.8"/>
    <line class="st0" x1="907.1" y1="980.8" x2="907.1" y2="1150.9"/>
    <line class="st1" x1="980.8" y1="1065.8" x2="1150.9" y2="1065.8"/>
    <line class="st0" x1="1224.6" y1="980.8" x2="1224.6" y2="1150.9"/>
    <line class="st1" x1="1298.3" y1="1065.8" x2="1468.3" y2="1065.8"/>
    <line class="st0" x1="1542.1" y1="980.8" x2="1542.1" y2="1150.9"/>
    <line class="st1" x1="1615.8" y1="1065.8" x2="1785.8" y2="1065.8"/>
    <line class="st0" x1="1859.5" y1="980.8" x2="1859.5" y2="1065.8"/>
    <line class="st1" x1="1933.2" y1="1065.8" x2="2103.3" y2="1065.8"/>
    <line class="st0" x1="2177" y1="980.8" x2="2177" y2="1150.9"/>
    <line class="st1" x1="2250.7" y1="1065.8" x2="2420.8" y2="1065.8"/>
    <line class="st0" x1="2494.5" y1="980.8" x2="2494.5" y2="1150.9"/>
    <line class="st1" x1="2568.2" y1="1065.8" x2="2738.3" y2="1065.8"/>
    <line class="st0" x1="2812" y1="980.8" x2="2812" y2="1150.9"/>
    <line class="st1" x1="2885.7" y1="1065.8" x2="3055.8" y2="1065.8"/>
    <line class="st0" x1="3129.4" y1="980.8" x2="3129.4" y2="1150.9"/>
    <line class="st1" x1="187.1" y1="1224.6" x2="357.2" y2="1224.6"/>
    <line class="st0" x1="430.9" y1="1139.5" x2="430.9" y2="1309.6"/>
    <line class="st1" x1="504.6" y1="1224.6" x2="674.7" y2="1224.6"/>
    <line class="st0" x1="748.3" y1="1139.5" x2="748.3" y2="1309.6"/>
    <line class="st1" x1="822" y1="1224.6" x2="992.1" y2="1224.6"/>
    <line class="st0" x1="1065.8" y1="1139.5" x2="1065.8" y2="1309.6"/>
    <line class="st1" x1="1139.5" y1="1224.6" x2="1309.6" y2="1224.6"/>
    <line class="st0" x1="1383.3" y1="1139.5" x2="1383.3" y2="1309.6"/>
    <line class="st1" x1="1457" y1="1224.6" x2="1627.1" y2="1224.6"/>
    <line class="st0" x1="1700.8" y1="1139.5" x2="1700.8" y2="1224.6"/>
    <line class="st0" x1="2018.3" y1="1139.5" x2="2018.3" y2="1309.6"/>
    <line class="st1" x1="2092" y1="1224.6" x2="2262.1" y2="1224.6"/>
    <line class="st0" x1="2335.8" y1="1139.5" x2="2335.8" y2="1309.6"/>
    <line class="st1" x1="2409.4" y1="1224.6" x2="2579.5" y2="1224.6"/>
    <line class="st0" x1="2653.2" y1="1139.5" x2="2653.2" y2="1309.6"/>
    <line class="st1" x1="2726.9" y1="1224.6" x2="2897" y2="1224.6"/>
    <line class="st0" x1="2970.7" y1="1139.5" x2="2970.7" y2="1309.6"/>
    <line class="st1" x1="3044.4" y1="1224.6" x2="3214.5" y2="1224.6"/>
    <line class="st0" x1="272.1" y1="1298.3" x2="272.1" y2="1468.3"/>
    <line class="st1" x1="345.8" y1="1383.3" x2="515.9" y2="1383.3"/>
    <line class="st0" x1="589.6" y1="1298.3" x2="589.6" y2="1468.3"/>
    <line class="st1" x1="663.3" y1="1383.3" x2="833.4" y2="1383.3"/>
    <line class="st0" x1="907.1" y1="1298.3" x2="907.1" y2="1468.3"/>
    <line class="st1" x1="980.8" y1="1383.3" x2="1150.9" y2="1383.3"/>
    <line class="st0" x1="1224.6" y1="1298.3" x2="1224.6" y2="1468.3"/>
    <line class="st1" x1="1298.3" y1="1383.3" x2="1468.3" y2="1383.3"/>
    <line class="st0" x1="1542.1" y1="1298.3" x2="1542.1" y2="1383.3"/>
    <line class="st1" x1="2018.3" y1="1383.3" x2="2103.3" y2="1383.3"/>
    <line class="st0" x1="2177" y1="1298.3" x2="2177" y2="1468.3"/>
    <line class="st1" x1="2250.7" y1="1383.3" x2="2420.8" y2="1383.3"/>
    <line class="st0" x1="2494.5" y1="1298.3" x2="2494.5" y2="1468.3"/>
    <line class="st1" x1="2568.2" y1="1383.3" x2="2738.3" y2="1383.3"/>
    <line class="st0" x1="2812" y1="1298.3" x2="2812" y2="1468.3"/>
    <line class="st1" x1="2885.7" y1="1383.3" x2="3055.8" y2="1383.3"/>
    <line class="st0" x1="3129.4" y1="1298.3" x2="3129.4" y2="1468.3"/>
    <line class="st1" x1="187.1" y1="1542.1" x2="357.2" y2="1542.1"/>
    <line class="st0" x1="430.9" y1="1457" x2="430.9" y2="1627.1"/>
    <line class="st1" x1="504.6" y1="1542.1" x2="674.7" y2="1542.1"/>
    <line class="st0" x1="748.3" y1="1457" x2="748.3" y2="1627.1"/>
    <line class="st1" x1="822" y1="1542.1" x2="992.1" y2="1542.1"/>
    <line class="st0" x1="1065.8" y1="1457" x2="1065.8" y2="1627.1"/>
    <line class="st1" x1="1139.5" y1="1542.1" x2="1309.6" y2="1542.1"/>
    <line class="st0" x1="1383.3" y1="1457" x2="1383.3" y2="1542.1"/>
    <line class="st0" x1="2018.3" y1="1457" x2="2018.3" y2="1627.1"/>
    <line class="st1" x1="2092" y1="1542.1" x2="2262.1" y2="1542.1"/>
    <line class="st0" x1="2335.8" y1="1457" x2="2335.8" y2="1627.1"/>
    <line class="st1" x1="2409.4" y1="1542.1" x2="2579.5" y2="1542.1"/>
    <line class="st0" x1="2653.2" y1="1457" x2="2653.2" y2="1627.1"/>
    <line class="st1" x1="2726.9" y1="1542.1" x2="2897" y2="1542.1"/>
    <line class="st0" x1="2970.7" y1="1457" x2="2970.7" y2="1627.1"/>
    <line class="st1" x1="3044.4" y1="1542.1" x2="3214.5" y2="1542.1"/>
    <line class="st0" x1="272.1" y1="1615.8" x2="272.1" y2="1785.8"/>
    <line class="st1" x1="345.8" y1="1700.8" x2="515.9" y2="1700.8"/>
    <line class="st0" x1="589.6" y1="1615.8" x2="589.6" y2="1785.8"/>
    <line class="st1" x1="663.3" y1="1700.8" x2="833.4" y2="1700.8"/>
    <line class="st0" x1="907.1" y1="1615.8" x2="907.1" y2="1785.8"/>
    <line class="st1" x1="980.8" y1="1700.8" x2="1150.9" y2="1700.8"/>
    <line class="st0" x1="1224.6" y1="1615.8" x2="1224.6" y2="1700.8"/>
    <line class="st1" x1="2018.3" y1="1700.8" x2="2103.3" y2="1700.8"/>
    <line class="st0" x1="2177" y1="1615.8" x2="2177" y2="1785.8"/>
    <line class="st1" x1="2250.7" y1="1700.8" x2="2420.8" y2="1700.8"/>
    <line class="st0" x1="2494.5" y1="1615.8" x2="2494.5" y2="1785.8"/>
    <line class="st1" x1="2568.2" y1="1700.8" x2="2738.3" y2="1700.8"/>
    <line class="st0" x1="2812" y1="1615.8" x2="2812" y2="1785.8"/>
    <line class="st1" x1="2885.7" y1="1700.8" x2="3055.8" y2="1700.8"/>
    <line class="st0" x1="3129.4" y1="1615.8" x2="3129.4" y2="1785.8"/>
    <line class="st1" x1="187.1" y1="1859.5" x2="357.2" y2="1859.5"/>
    <line class="st0" x1="430.9" y1="1774.5" x2="430.9" y2="1944.6"/>
    <line class="st1" x1="504.6" y1="1859.5" x2="674.7" y2="1859.5"/>
    <line class="st0" x1="748.3" y1="1774.5" x2="748.3" y2="1944.6"/>
    <line class="st1" x1="822" y1="1859.5" x2="992.1" y2="1859.5"/>
    <line class="st0" x1="1065.8" y1="1774.5" x2="1065.8" y2="1944.6"/>
    <line class="st0" x1="2018.3" y1="1774.5" x2="2018.3" y2="1859.5"/>
    <line class="st1" x1="2092" y1="1859.5" x2="2262.1" y2="1859.5"/>
    <line class="st0" x1="2335.8" y1="1774.5" x2="2335.8" y2="1944.6"/>
    <line class="st1" x1="2409.4" y1="1859.5" x2="2579.5" y2="1859.5"/>
    <line class="st0" x1="2653.2" y1="1774.5" x2="2653.2" y2="1944.6"/>
    <line class="st1" x1="2726.9" y1="1859.5" x2="2897" y2="1859.5"/>
    <line class="st0" x1="2970.7" y1="1774.5" x2="2970.7" y2="1944.6"/>
    <line class="st1" x1="3044.4" y1="1859.5" x2="3214.5" y2="1859.5"/>
    <line class="st0" x1="272.1" y1="1933.2" x2="272.1" y2="2103.3"/>
    <line class="st1" x1="345.8" y1="2018.3" x2="515.9" y2="2018.3"/>
    <line class="st0" x1="589.6" y1="1933.2" x2="589.6" y2="2103.3"/>
    <line class="st1" x1="663.3" y1="2018.3" x2="833.4" y2="2018.3"/>
    <line class="st0" x1="907.1" y1="1933.2" x2="907.1" y2="2103.3"/>
    <line class="st1" x1="980.8" y1="2018.3" x2="1065.8" y2="2018.3"/>
    <line class="st1" x1="2335.8" y1="2018.3" x2="2420.8" y2="2018.3"/>
    <line class="st0" x1="2494.5" y1="1933.2" x2="2494.5" y2="2103.3"/>
    <line class="st1" x1="2568.2" y1="2018.3" x2="2738.3" y2="2018.3"/>
    <line class="st0" x1="2812" y1="1933.2" x2="2812" y2="2103.3"/>
    <line class="st1" x1="2885.7" y1="2018.3" x2="3055.8" y2="2018.3"/>
    <line class="st0" x1="3129.4" y1="1933.2" x2="3129.4" y2="2103.3"/>
    <line class="st1" x1="187.1" y1="2177" x2="357.2" y2="2177"/>
    <line class="st0" x1="430.9" y1="2092" x2="430.9" y2="2262.1"/>
    <line class="st1" x1="504.6" y1="2177" x2="674.7" y2="2177"/>
    <line class="st0" x1="748.3" y1="2092" x2="748.3" y2="2262.1"/>
    <line class="st1" x1="822" y1="2177" x2="992.1" y2="2177"/>
    <line class="st0" x1="1065.8" y1="2092" x2="1065.8" y2="2262.1"/>
    <line class="st1" x1="1139.5" y1="2177" x2="1309.6" y2="2177"/>
    <line class="st0" x1="1383.3" y1="2177" x2="1383.3" y2="2262.1"/>
    <line class="st1" x1="1457" y1="2177" x2="1627.1" y2="2177"/>
    <line class="st0" x1="1700.8" y1="2177" x2="1700.8" y2="2262.1"/>
    <line class="st0" x1="2018.3" y1="2177" x2="2018.3" y2="2262.1"/>
    <line class="st1" x1="2092" y1="2177" x2="2262.1" y2="2177"/>
    <line class="st0" x1="2335.8" y1="2092" x2="2335.8" y2="2262.1"/>
    <line class="st1" x1="2409.4" y1="2177" x2="2579.5" y2="2177"/>
    <line class="st0" x1="2653.2" y1="2092" x2="2653.2" y2="2262.1"/>
    <line class="st1" x1="2726.9" y1="2177" x2="2897" y2="2177"/>
    <line class="st0" x1="2970.7" y1="2092" x2="2970.7" y2="2262.1"/>
    <line class="st1" x1="3044.4" y1="2177" x2="3214.5" y2="2177"/>
    <line class="st0" x1="272.1" y1="2250.7" x2="272.1" y2="2420.8"/>
    <line class="st1" x1="345.8" y1="2335.7" x2="515.9" y2="2335.7"/>
    <line class="st0" x1="589.6" y1="2250.7" x2="589.6" y2="2420.8"/>
    <line class="st1" x1="663.3" y1="2335.7" x2="833.4" y2="2335.7"/>
    <line class="st0" x1="907.1" y1="2250.7" x2="907.1" y2="2420.8"/>
    <line class="st1" x1="980.8" y1="2335.7" x2="1150.9" y2="2335.7"/>
    <line class="st0" x1="1224.6" y1="2250.7" x2="1224.6" y2="2420.8"/>
    <line class="st1" x1="1298.3" y1="2335.7" x2="1468.3" y2="2335.7"/>
    <line class="st0" x1="1542.1" y1="2250.7" x2="1542.1" y2="2420.8"/>
    <line class="st1" x1="1615.8" y1="2335.7" x2="1700.8" y2="2335.7"/>
    <line class="st1" x1="2018.3" y1="2335.7" x2="2103.3" y2="2335.7"/>
    <line class="st0" x1="2177" y1="2250.7" x2="2177" y2="2420.8"/>
    <line class="st1" x1="2250.7" y1="2335.7" x2="2420.8" y2="2335.7"/>
    <line class="st0" x1="2494.5" y1="2250.7" x2="2494.5" y2="2420.8"/>
    <line class="st1" x1="2568.2" y1="2335.7" x2="2738.3" y2="2335.7"/>
    <line class="st0" x1="2812" y1="2250.7" x2="2812" y2="2420.8"/>
    <line class="st1" x1="2885.7" y1="2335.7" x2="3055.8" y2="2335.7"/>
    <line class="st0" x1="3129.4" y1="2250.7" x2="3129.4" y2="2420.8"/>
    <line class="st1" x1="187.1" y1="2494.5" x2="357.2" y2="2494.5"/>
    <line class="st0" x1="430.9" y1="2409.4" x2="430.9" y2="2579.5"/>
    <line class="st1" x1="504.6" y1="2494.5" x2="674.7" y2="2494.5"/>
    <line class="st0" x1="748.3" y1="2409.4" x2="748.3" y2="2579.5"/>
    <line class="st1" x1="822" y1="2494.5" x2="992.1" y2="2494.5"/>
    <line class="st0" x1="1065.8" y1="2409.4" x2="1065.8" y2="2579.5"/>
    <line class="st1" x1="1139.5" y1="2494.5" x2="1309.6" y2="2494.5"/>
    <line class="st0" x1="1383.3" y1="2409.4" x2="1383.3" y2="2579.5"/>
    <line class="st1" x1="1457" y1="2494.5" x2="1627.1" y2="2494.5"/>
    <line class="st0" x1="1700.8" y1="2409.4" x2="1700.8" y2="2579.5"/>
    <line class="st1" x1="1774.5" y1="2494.5" x2="1944.6" y2="2494.5"/>
    <line class="st0" x1="2018.3" y1="2409.4" x2="2018.3" y2="2579.5"/>
    <line class="st1" x1="2092" y1="2494.5" x2="2262.1" y2="2494.5"/>
    <line class="st0" x1="2335.8" y1="2409.4" x2="2335.8" y2="2579.5"/>
    <line class="st1" x1="2409.4" y1="2494.5" x2="2579.5" y2="2494.5"/>
    <line class="st0" x1="2653.2" y1="2409.4" x2="2653.2" y2="2579.5"/>
    <line class="st1" x1="2726.9" y1="2494.5" x2="2897" y2="2494.5"/>
    <line class="st0" x1="2970.7" y1="2409.4" x2="2970.7" y2="2579.5"/>
    <line class="st1" x1="3044.4" y1="2494.5" x2="3214.5" y2="2494.5"/>
    <line class="st0" x1="272.1" y1="2568.2" x2="272.1" y2="2738.3"/>
    <line class="st1" x1="345.8" y1="2653.2" x2="515.9" y2="2653.2"/>
    <line class="st0" x1="589.6" y1="2568.2" x2="589.6" y2="2738.3"/>
    <line class="st1" x1="663.3" y1="2653.2" x2="833.4" y2="2653.2"/>
    <line class="st0" x1="907.1" y1="2568.2" x2="907.1" y2="2738.3"/>
    <line class="st1" x1="980.8" y1="2653.2" x2="1150.9" y2="2653.2"/>
    <line class="st0" x1="1224.6" y1="2568.2" x2="1224.6" y2="2738.3"/>
    <line class="st1" x1="1298.3" y1="2653.2" x2="1468.3" y2="2653.2"/>
    <line class="st0" x1="1542.1" y1="2568.2" x2="1542.1" y2="2738.3"/>
    <line class="st1" x1="1615.8" y1="2653.2" x2="1785.8" y2="2653.2"/>
    <line class="st0" x1="1859.5" y1="2568.2" x2="1859.5" y2="2738.3"/>
    <line class="st1" x1="1933.2" y1="2653.2" x2="2103.3" y2="2653.2"/>
    <line class="st0" x1="2177" y1="2568.2" x2="2177" y2="2738.3"/>
    <line class="st1" x1="2250.7" y1="2653.2" x2="2420.8" y2="2653.2"/>
    <line class="st0" x1="2494.5" y1="2568.2" x2="2494.5" y2="2738.3"/>
    <line class="st1" x1="2568.2" y1="2653.2" x2="2738.3" y2="2653.2"/>
    <line class="st0" x1="2812" y1="2568.2" x2="2812" y2="2738.3"/>
    <line class="st1" x1="2885.7" y1="2653.2" x2="3055.8" y2="2653.2"/>
    <line class="st0" x1="3129.4" y1="2568.2" x2="3129.4" y2="2738.3"/>
    <line class="st1" x1="187.1" y1="2812" x2="357.2" y2="2812"/>
    <line class="st0" x1="430.9" y1="2726.9" x2="430.9" y2="2897"/>
    <line class="st1" x1="504.6" y1="2812" x2="674.7" y2="2812"/>
    <line class="st0" x1="748.3" y1="2726.9" x2="748.3" y2="2897"/>
    <line class="st1" x1="822" y1="2812" x2="992.1" y2="2812"/>
    <line class="st0" x1="1065.8" y1="2726.9" x2="1065.8" y2="2897"/>
    <line class="st1" x1="1139.5" y1="2812" x2="1309.6" y2="2812"/>
    <line class="st0" x1="1383.3" y1="2726.9" x2="1383.3" y2="2897"/>
    <line class="st1" x1="1457" y1="2812" x2="1627.1" y2="2812"/>
    <line class="st0" x1="1700.8" y1="2726.9" x2="1700.8" y2="2897"/>
    <line class="st1" x1="1774.5" y1="2812" x2="1944.6" y2="2812"/>
    <line class="st0" x1="2018.3" y1="2726.9" x2="2018.3" y2="2897"/>
    <line class="st1" x1="2092" y1="2812" x2="2262.1" y2="2812"/>
    <line class="st0" x1="2335.8" y1="2726.9" x2="2335.8" y2="2897"/>
    <line class="st1" x1="2409.4" y1="2812" x2="2579.5" y2="2812"/>
    <line class="st0" x1="2653.2" y1="2726.9" x2="2653.2" y2="2897"/>
    <line class="st1" x1="2726.9" y1="2812" x2="2897" y2="2812"/>
    <line class="st0" x1="2970.7" y1="2726.9" x2="2970.7" y2="2897"/>
    <line class="st1" x1="3044.4" y1="2812" x2="3214.5" y2="2812"/>
    <line class="st0" x1="272.1" y1="2885.7" x2="272.1" y2="3055.7"/>
    <line class="st1" x1="345.8" y1="2970.7" x2="515.9" y2="2970.7"/>
    <line class="st0" x1="589.6" y1="2885.7" x2="589.6" y2="3055.7"/>
    <line class="st1" x1="663.3" y1="2970.7" x2="833.4" y2="2970.7"/>
    <line class="st0" x1="907.1" y1="2885.7" x2="907.1" y2="3055.7"/>
    <line class="st1" x1="980.8" y1="2970.7" x2="1150.9" y2="2970.7"/>
    <line class="st0" x1="1224.6" y1="2885.7" x2="1224.6" y2="3055.7"/>
    <line class="st1" x1="1298.3" y1="2970.7" x2="1468.3" y2="2970.7"/>
    <line class="st0" x1="1542.1" y1="2885.7" x2="1542.1" y2="3055.7"/>
    <line class="st1" x1="1615.8" y1="2970.7" x2="1785.8" y2="2970.7"/>
    <line class="st0" x1="1859.5" y1="2885.7" x2="1859.5" y2="3055.7"/>
    <line class="st1" x1="1933.2" y1="2970.7" x2="2103.3" y2="2970.7"/>
    <line class="st0" x1="2177" y1="2885.7" x2="2177" y2="3055.7"/>
    <line class="st1" x1="2250.7" y1="2970.7" x2="2420.8" y2="2970.7"/>
    <line class="st0" x1="2494.5" y1="2885.7" x2="2494.5" y2="3055.7"/>
    <line class="st1" x1="2568.2" y1="2970.7" x2="2738.3" y2="2970.7"/>
    <line class="st0" x1="2812" y1="2885.7" x2="2812" y2="3055.7"/>
    <line class="st1" x1="2885.7" y1="2970.7" x2="3055.8" y2="2970.7"/>
    <line class="st0" x1="3129.4" y1="2885.7" x2="3129.4" y2="3055.7"/>
    <line class="st1" x1="187.1" y1="3129.4" x2="357.2" y2="3129.4"/>
    <line class="st0" x1="430.9" y1="3044.4" x2="430.9" y2="3214.5"/>
    <line class="st1" x1="504.6" y1="3129.4" x2="674.7" y2="3129.4"/>
    <line class="st0" x1="748.3" y1="3044.4" x2="748.3" y2="3214.5"/>
    <line class="st1" x1="822" y1="3129.4" x2="992.1" y2="3129.4"/>
    <line class="st0" x1="1065.8" y1="3044.4" x2="1065.8" y2="3214.5"/>
    <line class="st1" x1="1139.5" y1="3129.4" x2="1309.6" y2="3129.4"/>
    <line class="st0" x1="1383.3" y1="3044.4" x2="1383.3" y2="3214.5"/>
    <line class="st1" x1="1457" y1="3129.4" x2="1627.1" y2="3129.4"/>
    <line class="st0" x1="1700.8" y1="3044.4" x2="1700.8" y2="3214.5"/>
    <line class="st1" x1="1774.5" y1="3129.4" x2="1944.6" y2="3129.4"/>
    <line class="st0" x1="2018.3" y1="3044.4" x2="2018.3" y2="3214.5"/>
    <line class="st1" x1="2092" y1="3129.4" x2="2262.1" y2="3129.4"/>
    <line class="st0" x1="2335.8" y1="3044.4" x2="2335.8" y2="3214.5"/>
    <line class="st1" x1="2409.4" y1="3129.4" x2="2579.5" y2="3129.4"/>
    <line class="st0" x1="2653.2" y1="3044.4" x2="2653.2" y2="3214.5"/>
    <line class="st1" x1="2726.9" y1="3129.4" x2="2897" y2="3129.4"/>
    <line class="st0" x1="2970.7" y1="3044.4" x2="2970.7" y2="3214.5"/>
    <line class="st1" x1="3044.4" y1="3129.4" x2="3214.5" y2="3129.4"/>
  </g>
  <g id="profile_and_holes">
    <circle class="st2" cx="28.3" cy="28.3" r="8.5"/>
    <circle class="st2" cx="3373.2" cy="28.3" r="8.5"/>
    <circle class="st2" cx="28.3" cy="3374.6" r="8.5"/>
    <circle class="st2" cx="3373.2" cy="3374.6" r="8.5"/>
  </g>
  <g id="outlines">
    <rect class="st2" y="0" width="3401.6" height="5102.4"/>
    <rect class="st2" x="1.4" y="3403" width="3401.6" height="1700.8"/>
  </g>
  <rect class="st3" x="0" width="56.7" height="5102.4"/>
  <rect class="st3" x="3344.9" width="56.7" height="5102.4"/>
  <rect class="st3" width="3401.6" height="56.7"/>
</svg>